<?xml version="1.0" standalone="no"?>
<!DOCTYPE svg PUBLIC "-//W3C//DTD SVG 20010904//EN" "http://www.w3.org/TR/2001/REC-SVG-20010904/DTD/svg10.dtd">
<!-- Created using Karbon, part of Calligra: http://www.calligra.org/karbon -->
<svg xmlns="http://www.w3.org/2000/svg" xmlns:xlink="http://www.w3.org/1999/xlink" width="595.277pt" height="841.891pt">
<defs/>
<g id="layer0">
  <path id="shape0" transform="translate(1.24227, 60.4698)" fill="#ebf0f9" d="M0 0L82.585 0L82.585 93.9012L0 93.9012Z"/>
  <path id="shape1" transform="translate(1.24227, 60.4698)" fill="none" stroke="#231f20" stroke-width="0.12013100000" stroke-linecap="round" stroke-linejoin="round" d="M0 0L82.585 0L82.585 93.9012L0 93.9012Z"/>
  <text id="shape0" fill="#231f20" font-family="Arial" font-size="4.79759979248pt" x="0.00000000000pt" y="3.70312500000pt" transform="translate(22.7623, 145.92)"><tspan x="0"  y="4.62891">Storage</tspan></text>
  <text id="shape01" fill="#231f20" font-family="Arial" font-size="4.79759979248pt" x="0.00000000000pt" y="3.70312500000pt" transform="translate(44.9943, 145.92)"><tspan x="0"  y="4.62891">Stamp</tspan></text>
  <path id="shape2" transform="translate(5.656, 124.763)" fill="#ffffff" fill-rule="evenodd" d="M68.8335 19.3841C71.2641 19.3841 73.2358 17.3287 73.2358 14.796L73.3605 14.9031L73.3605 4.584L73.2358 4.62377C73.2358 2.09114 71.2641 0.0397634 68.8335 0.0397634L68.9582 0L4.40233 0L4.44123 0.0397634C2.01067 0.0397634 0.0388969 2.09114 0.0388969 4.62377L0 4.584L0 14.9031L0.0388969 14.796C0.0388969 17.3287 2.01067 19.3841 4.44123 19.3841L4.40233 19.4912L68.9582 19.4912"/>
  <path id="shape3" transform="translate(5.65597, 124.763)" fill="none" stroke="#231f20" stroke-width="0.12013100000" stroke-linecap="round" stroke-linejoin="round" d="M68.9789 19.3831C71.4151 19.3831 73.3912 17.3287 73.3912 14.795L73.5158 14.9031L73.5158 4.584L73.3912 4.62377C73.3912 2.0942 71.4151 0.0397634 68.9789 0.0397634L69.1084 0L4.41232 0L4.45057 0.0397634C2.01443 0.0397634 0.0392293 2.0942 0.0392293 4.62377L0 4.584L0 14.9031L0.0392293 14.795C0.0392293 17.3287 2.01443 19.3831 4.45057 19.3831L4.41232 19.4912L69.1084 19.4912Z"/>
  <text id="shape02" fill="#231f20" font-family="Arial" font-size="4.79759979248pt" x="0.00000000000pt" y="3.70312500000pt" transform="translate(24.7283, 128.233)"><tspan x="0"  y="4.62891">Stream</tspan></text>
  <text id="shape03" fill="#231f20" font-family="Arial" font-size="4.79759979248pt" x="0.00000000000pt" y="3.65625000000pt" transform="translate(45.3185, 128.292)"><tspan x="0"  y="4.57031">Layer</tspan></text>
  <text id="shape04" fill="#231f20" font-family="Arial" font-size="4.79759979248pt" x="0.00000000000pt" y="3.70312500000pt" transform="translate(11.6469, 135.43)"><tspan x="0"  y="4.62891">Intra-Stamp</tspan></text>
  <text id="shape05" fill="#231f20" font-family="Arial" font-size="4.79759979248pt" x="0.00000000000pt" y="3.65625000000pt" transform="translate(44.0004, 135.489)"><tspan x="0"  y="4.57031">Replication</tspan></text>
  <path id="shape4" transform="translate(5.656, 97.7553)" fill="#ffffff" fill-rule="evenodd" d="M68.8335 19.1987C71.2641 19.1987 73.2358 17.1587 73.2358 14.6451L73.3605 14.5854L73.3605 4.72352L73.2358 4.54947C73.2358 2.03593 71.2641 0 68.8335 0L68.9582 0.169998L4.40233 0.169998L4.44123 0C2.01067 0 0.0388969 2.03593 0.0388969 4.54947L0 4.72352L0 14.5854L0.0388969 14.6451C0.0388969 17.1587 2.01067 19.1987 4.44123 19.1987L4.40233 19.1349L68.9582 19.1349"/>
  <path id="shape5" transform="translate(5.65597, 97.7543)" fill="none" stroke="#231f20" stroke-width="0.12013100000" stroke-linecap="round" stroke-linejoin="round" d="M68.9789 19.1987C71.4151 19.1987 73.3912 17.1597 73.3912 14.6451L73.5158 14.5864L73.5158 4.72352L73.3912 4.55048C73.3912 2.03998 71.4151 0 68.9789 0L69.1084 0.174046L4.41232 0.174046L4.45057 0C2.01443 0 0.0392293 2.03998 0.0392293 4.55048L0 4.72352L0 14.5864L0.0392293 14.6451C0.0392293 17.1597 2.01443 19.1987 4.45057 19.1987L4.41232 19.1359L69.1084 19.1359Z"/>
  <text id="shape06" fill="#231f20" font-family="Arial" font-size="4.79759979248pt" x="0.00000000000pt" y="3.65625000000pt" transform="translate(23.4173, 104.694)"><tspan x="0"  y="4.57031">Partition</tspan></text>
  <text id="shape07" fill="#231f20" font-family="Arial" font-size="4.79759979248pt" x="0.00000000000pt" y="3.65625000000pt" transform="translate(46.6203, 104.694)"><tspan x="0"  y="4.57031">Layer</tspan></text>
  <path id="shape6" transform="translate(5.656, 69.6679)" fill="#ffffff" fill-rule="evenodd" d="M68.8335 19.377C71.2641 19.377 73.2358 17.3229 73.2358 14.7896L73.3605 14.9018L73.3605 4.5843L73.2358 4.6159C73.2358 2.08266 71.2641 0.0326212 68.8335 0.0326212L68.9582 0L4.40233 0L4.44123 0.0326212C2.01067 0.0326212 0.0388969 2.08266 0.0388969 4.6159L0 4.5843L0 14.9018L0.0388969 14.7896C0.0388969 17.3229 2.01067 19.377 4.44123 19.377L4.40233 19.4851L68.9582 19.4851"/>
  <path id="shape7" transform="translate(5.65597, 69.6648)" fill="none" stroke="#231f20" stroke-width="0.12013100000" stroke-linecap="round" stroke-linejoin="round" d="M68.9789 19.38C71.4151 19.38 73.3912 17.3246 73.3912 14.792L73.5158 14.9031L73.5158 4.58808L73.3912 4.61561C73.3912 2.08707 71.4151 0.0316068 68.9789 0.0316068L69.1084 0L4.41232 0L4.45057 0.0316068C2.01443 0.0316068 0.0392293 2.08707 0.0392293 4.61561L0 4.58808L0 14.9031L0.0392293 14.792C0.0392293 17.3246 2.01443 19.38 4.45057 19.38L4.41232 19.4912L69.1084 19.4912Z"/>
  <text id="shape08" fill="#231f20" font-family="Arial" font-size="4.79759979248pt" x="0.00000000000pt" y="3.65625000000pt" transform="translate(27.8353, 76.7837)"><tspan x="0"  y="4.57031">Front-Ends</tspan></text>
  <path id="shape8" transform="translate(42.4335, 91.777)" fill="none" stroke="#231f20" stroke-width="0.35938400000" stroke-linecap="round" stroke-linejoin="round" d="M0 0L0 3.375"/>
  <path id="shape9" transform="translate(40.961, 88.553)" fill="#231f20" fill-rule="evenodd" d="M0 3.6L1.73519 0L3.46921 3.6L0 3.6"/>
  <path id="shape10" transform="translate(40.961, 95.1187)" fill="#231f20" fill-rule="evenodd" d="M3.46921 0L1.73519 3.0303L0 0L3.46921 0"/>
  <path id="shape11" transform="translate(42.4335, 119.891)" fill="none" stroke="#231f20" stroke-width="0.35938400000" stroke-linecap="round" stroke-linejoin="round" d="M0 0L0 2.621"/>
  <path id="shape12" transform="translate(40.961, 117.228)" fill="#231f20" fill-rule="evenodd" d="M0 3.0375L1.73519 0L3.46921 3.0375L0 3.0375"/>
  <path id="shape13" transform="translate(40.961, 122.099)" fill="#231f20" fill-rule="evenodd" d="M3.46921 0L1.73519 3.0375L0 0L3.46921 0"/>
  <path id="shape14" transform="translate(34.344, 50.559)" fill="#ffffff" d="M0 0L16.8576 0L16.8576 11.234L0 11.234Z"/>
  <path id="shape15" transform="translate(34.3401, 50.559)" fill="none" stroke="#231f20" stroke-width="0.12013100000" stroke-linecap="round" stroke-linejoin="round" d="M0 0L17.1793 0L17.1793 11.234L0 11.234Z"/>
  <text id="shape09" fill="#231f20" font-family="Arial" font-size="4.79759979248pt" x="0.00000000000pt" y="3.65625000000pt" transform="translate(37.8583, 53.5157)"><tspan x="0"  y="4.57031">VIP</tspan></text>
  <path id="shape16" transform="translate(42.4335, 64.793)" fill="none" stroke="#231f20" stroke-width="0.35938400000" stroke-linecap="round" stroke-linejoin="round" d="M0 0L0 2.625"/>
  <path id="shape17" transform="translate(40.961, 62.1305)" fill="#231f20" fill-rule="evenodd" d="M0 3.0375L1.30095 0L2.92516 3.0375L0 3.0375"/>
  <path id="shape18" transform="translate(40.961, 67.0015)" fill="#231f20" fill-rule="evenodd" d="M3.46921 0.3375L1.73519 3.0375L0 0L3.46921 0.3375"/>
 </g>
</svg>
